/* XPM */
static char *cf66a9ba08e9460abf4b30fc156ef30d1WtGIjE36Ibp3s2V[] = {
/* columns rows colors chars-per-pixel */
"40 40 18 1 ",
"  c None",
". c black",
"X c #010101",
"o c #020202",
"O c gray1",
"+ c #070707",
"@ c gray3",
"# c #0B0B0B",
"$ c #0C0C0C",
"% c gray5",
"& c #0E0E0E",
"* c gray6",
"= c #101010",
"- c #111111",
"; c gray7",
": c #131313",
"> c gray8",
", c #161616",
/* pixels */
"                   ,,                   ",
"                   ,=                   ",
"                   ,,                   ",
"                ,@O..O@=                ",
"             =.O*  ,=  *O.=             ",
"           =.=     =,     =.=           ",
"          .*       ,=       *.          ",
"         .         =,         .         ",
"        .          **          .        ",
"       .         **@@**         .       ",
"      O            ,=            .      ",
"     =*            =,            *=     ",
"     .             =,             .     ",
"    =*             ,=             ==    ",
"    .            ......            .    ",
"    .              =,              O    ",
"   ,*              ,,              *,   ",
"   @     *    .    ==    .    =     O   ",
"   O     *    .    ,,    .    *     O   ",
",==.,=,==O=,=,.=,=,@@,=,=.,=,=@*=,=,.,,=",
",,=.=,=,=@,=,=.,=,,@*=,=,.=,,,O=,=,,.,=,",
"   O     *    .    =,    .    *     O   ",
"   @     *    .    ,=    .    *     @   ",
"   ,*              =,              *=   ",
"    .              ,=              .    ",
"    .            ......            .    ",
"    ==             =,             ==    ",
"     .             ,=             .     ",
"     =*            =,            *=     ",
"      .            ,=            .      ",
"       .         =*O@**         .       ",
"        .          ==          .        ",
"         .         ,=         .         ",
"          .*       =,       *O          ",
"           =.=     ==     *.=           ",
"             =.O*  ,,  *..*             ",
"                ,@...O@=                ",
"                   ,,                   ",
"                   =,                   ",
"                   ,,                   "
};
