/* XPM */
static char *_3b8e5e5f99d4793b80626109a966cadpvPzBXks76Xba6pK[] = {
/* columns rows colors chars-per-pixel */
"60 34 149 2 ",
"   c None",
".  c #7E3D18",
"X  c #843D17",
"o  c #883E17",
"O  c #833E18",
"+  c #8F3F18",
"@  c #8D4017",
"#  c #85411A",
"$  c #8C431C",
"%  c #8D491F",
"&  c #95441A",
"*  c #9A461A",
"=  c #92481E",
"-  c #9C4A1D",
";  c #9F501F",
":  c #A24E1F",
">  c #A6531E",
",  c #AC521E",
"<  c #BB5C1F",
"1  c #8B4720",
"2  c #8B4821",
"3  c #924620",
"4  c #944B21",
"5  c #9B4E22",
"6  c #9E5123",
"7  c #A14E23",
"8  c #A25323",
"9  c #A95622",
"0  c #AC5921",
"q  c #B15721",
"w  c #B35B23",
"e  c #BA5B23",
"r  c #B25D2B",
"t  c #BB5D2A",
"y  c #B66023",
"u  c #BB6224",
"i  c #BB642A",
"p  c #BE6B2E",
"a  c #BF702F",
"s  c #C66422",
"d  c #C86522",
"f  c #CC6C25",
"g  c #C3662B",
"h  c #C46D2E",
"j  c #CA6B2C",
"k  c #D16C26",
"l  c #D16F29",
"z  c #CE722B",
"x  c #D3742B",
"c  c #DB7629",
"v  c #D77A2D",
"b  c #DA7A2B",
"n  c #CE7530",
"m  c #CD7C31",
"M  c #D57432",
"N  c #DC7534",
"B  c #D67C30",
"V  c #DE7E33",
"C  c #E27F2E",
"Z  c #E57F39",
"A  c #D98635",
"S  c #DD8937",
"D  c #D38338",
"F  c #DF8538",
"G  c #E3832E",
"H  c #E68A2D",
"J  c #E58636",
"K  c #E68C33",
"L  c #EA8B34",
"P  c #E48138",
"I  c #E38A3A",
"U  c #ED8D3B",
"Y  c #F08E39",
"T  c #EE9532",
"R  c #EF953B",
"E  c #ED993F",
"W  c #F59436",
"Q  c #F3993C",
"!  c #FA9F39",
"~  c #F3A137",
"^  c #F5A93D",
"/  c #FAA93F",
"(  c #E48B41",
")  c #EC8E40",
"_  c #EA9942",
"`  c #F29B47",
"'  c #E8A446",
"]  c #EDA64A",
"[  c #F6A643",
"{  c #F8A645",
"}  c #F5AA45",
"|  c #FCAF43",
" . c #F6AF4B",
".. c #FBAF49",
"X. c #F1B34E",
"o. c #FAB44B",
"O. c #FDBC4B",
"+. c #EAAE51",
"@. c #F4A853",
"#. c #F9AE52",
"$. c #F3B055",
"%. c #F4B852",
"&. c #FABD53",
"*. c #F6BD5A",
"=. c #FCC64E",
"-. c #FCC356",
";. c #FDCA52",
":. c #FFC15A",
">. c #FCCA5D",
",. c #FED45A",
"<. c #FEC764",
"1. c #FDCD63",
"2. c #FFD563",
"3. c #FDD46A",
"4. c #FED86A",
"5. c #FACC72",
"6. c #FAD774",
"7. c #FEDD71",
"8. c #FFE46F",
"9. c #FFE370",
"0. c #FFEB74",
"q. c #FFEE7C",
"w. c #FFF37B",
"e. c #FCD891",
"r. c #FDE381",
"t. c #FFEC83",
"y. c #FFEE8B",
"u. c #FFF383",
"i. c #FFF58B",
"p. c #FFF98A",
"a. c #FFEC91",
"s. c #FFF194",
"d. c #FFFB95",
"f. c #FEF09B",
"g. c #FFFD9D",
"h. c #FFECA8",
"j. c #FFF2A4",
"k. c #FFFDA4",
"l. c #FEF3AB",
"z. c #FFFCAD",
"x. c #FFFFBB",
"c. c #FFFFC2",
"v. c #FFFFCA",
"b. c #FFFFD4",
"n. c #FFFFDC",
"m. c #FFFFE3",
"M. c #FFFFEC",
"N. c #FFFFF4",
"B. c #FFFFFE",
/* pixels */
"                                                                                    . # #                               ",
"                                                                                    . .                                 ",
"                                                                                                                        ",
"                                                            & &     > , 0 y 0 ; ;                                       ",
"                                                            @ +   y z z x x u < > - $                                   ",
"                                                          & *   > x H G G c f d < > = #                                 ",
"                                                          w x u f H ~ T T H c k s 0 -                                   ",
"                                                        & A 3.} ^ ;.;.=.=.=.^ K k s q $                                 ",
"                                                    , - f X.l.t.y.l.v.z.g.q.,.{ G f < * o                               ",
"                                                  - f v *.j.b.b.M.B.B.B.N.c.y.O.W c < - O                               ",
"                                                  , U &.j.n.b.B.B.B.B.B.B.m.v.4.! C , * o   O     .                     ",
"                                              : , j 5.j.M.M.M.B.B.B.B.B.B.m.n.y.| L j , & @ O                           ",
"                                              e I @.e.m.N.B.B.B.B.B.B.B.B.N.M.z.-.W Y x , : -                           ",
"                                        7 3 4 t ( 5.h.m.N.B.B.B.B.B.B.B.B.B.N.m.a.O...Q l t                             ",
"                                        5 5 t M N U @.h.N.B.B.B.B.B.B.B.B.B.B.N.v.t.&.U w                               ",
"                                            t N Z #.3.j.N.B.B.B.B.B.B.B.B.B.B.B.M.c.6.f @                               ",
"                                            7 g P :.u.x.N.B.B.B.B.B.B.B.B.B.B.B.B.n.f.S -                               ",
"                                                M ` <.f.n.B.B.B.B.B.B.B.B.B.B.B.B.m.j.>.m - &                           ",
"                                                r M ) $.l.m.N.B.B.B.B.B.B.B.B.B.N.b.k.w.' -                             ",
"                                                7 j j I r.c.n.N.B.B.B.B.B.B.N.N.m.c.g.w.&.i                             ",
"                                                      i +.g.c.m.N.B.B.B.B.M.b.v.x.k.p.0.%.g                             ",
"                                                      3 D 7.k.c.n.M.B.B.N.n.x.k.d.i.4.] a                               ",
"                                                        I &.u.d.z.v.n.m.b.x.k.i.9.>._ g                                 ",
"                                                        h I -.>.4.i.g.g.g.d.u.8.X.I j r                                 ",
"                                                          V R I [ &.-.2.8.8.2.-._ n r                                   ",
"                                                          B x A o.B v U } o.o.Q z p y                                   ",
"                                                          8 8 z { n 9 y j v x z i                                       ",
"                                                          % 4 r J B 8 8 w 8 - 6                                         ",
"                                                              r j i 4 2 9 5                                             ",
"                                                          2   % 4 6 4 4 6 6                                             ",
"                                                            % 4 2 1 4 6 6 2                                             ",
"                                                            2 8 4 2 6 8 8                                               ",
"                                                              4     2 3 4                                               ",
"                                                                                                                        "
};
